# xmcd
#
# Track frame offsets: 
#        150
#        12338
#        22936
#        32619
#        41251
#        52607
#        64684
#        76820
#        87939
#        97983
#        109581
#        122319
#        134585
#        145678
#        159994
#        170788
#        181341
#        197768
#        211551
#        224053
#
# Disc length: 3252 seconds
#
# Revision: 0
# Processed by: cddbd v1.5.2PL0 Copyright (c) Steve Scherf et al.
# Submitted via: ExactAudioCopy v0.99pb4
#
DISCID=f90cb214
DTITLE=Kent Rose - One Riot, One Ranger
DYEAR=2005
DGENRE=Country
TTITLE0=Leave This Town
TTITLE1=Hammered and Nailed
TTITLE2=Thinkin' Bout Things
TTITLE3=Bless Her Heart
TTITLE4=Trouble Ain't No Trouble At All
TTITLE5=The Swing of Things
TTITLE6=These Pals of Mine
TTITLE7=I Can Hardly Tell That It's Saturday Night
TTITLE8=This House Gets Lonesome
TTITLE9=Restless Cat
TTITLE10=Love to Love
TTITLE11=Tammy Put the Whammy
TTITLE12=Waltzing On Air
TTITLE13=Workingman's Hands
TTITLE14=Madame Sheba
TTITLE15=Hillbilly Juice
TTITLE16=Blue California
TTITLE17=Women Keep Smashing Up My Cars
TTITLE18=I Think About Falling
TTITLE19=Traveling Light
EXTD=
EXTT0=
EXTT1=
EXTT2=
EXTT3=
EXTT4=
EXTT5=
EXTT6=
EXTT7=
EXTT8=
EXTT9=
EXTT10=
EXTT11=
EXTT12=
EXTT13=
EXTT14=
EXTT15=
EXTT16=
EXTT17=
EXTT18=
EXTT19=
PLAYORDER=
